# generated from PmQm by Jehee Lee
:FULLY-SPECIFIED
:DEGREES
46
root -3.00804 38.2717 -30.4712 -173.32 15.911 179.395
RightUpLeg -22.4685 4.10435 -14.7757
RightLeg 15.8447 20.9367 4.61881
RightFoot -5.96685 -0.832056 16.675
RightToes -0.000541893 -0.000659172 -0.000493268
Spine 4.12946 -1.23275 -1.35367
Spine1 8.35614 -2.33113 -2.59729
HEad 16.208 -28.2747 1.75844
LeftShoulder1 -3.88251e-019 -0 -3.92111e-022
LeftArm -31.1638 0.595715 -82.1959
LeftForeArm 26.5989 -12.5009 -3.29647
LeftHand -0.842556 -4.84271 9.8403
RightShoulder 7.45443e-017 -2.42657e-020 1.96277e-018
RightArm -24.8556 -12.4781 72.6215
RightForeArm 27.4232 7.81934 8.45554
RightHand -1.09319 9.91381 -8.65627
LeftUpLeg -18.6655 6.95908 9.80613
LeftLeg 12.6972 -26.2248 -5.59519
LeftFoot -5.33181 0.585909 -10.515
LeftToes 3.91355e-005 3.11907e-005 -4.10385e-006
47
root -1.66942 38.2285 -29.902 -171.788 13.5339 -178.956
RightUpLeg -23.981 3.93625 -11.3647
RightLeg 16.899 17.5468 5.1145
RightFoot -7.10409 -0.528529 12.9812
RightToes -0.000541893 -0.000659172 -0.000493268
Spine 4.64356 -0.983072 -0.729766
Spine1 9.37425 -1.79355 -0.750076
HEad 13.0301 -29.4389 2.73818
LeftShoulder1 -3.88251e-019 -0 -3.92111e-022
LeftArm -31.6202 0.758718 -81.5372
LeftForeArm 27.3548 -11.7017 -2.9674
LeftHand -0.874774 -4.78882 10.2548
RightShoulder 7.45443e-017 -2.42657e-020 1.96277e-018
RightArm -23.4964 -11.8744 72.3355
RightForeArm 24.8841 8.87232 9.07675
RightHand -1.21322 10.2393 -9.36845
LeftUpLeg -19.9518 8.71427 12.4612
LeftLeg 10.4905 -29.7276 -3.92027
LeftFoot -4.2748 0.858849 -13.4368
LeftToes 3.91355e-005 3.11907e-005 -4.10385e-006
48
root -0.470897 38.0927 -29.2369 -170.021 11.8879 -177.057
RightUpLeg -27.1748 4.48359 -7.80969
RightLeg 19.2837 15.2768 5.66436
RightFoot -6.7972 -0.484604 11.0238
RightToes -0.000541893 -0.000659172 -0.000493268
Spine 5.31818 -0.691076 0.20469
Spine1 10.7305 -1.25259 1.22755
HEad 8.32507 -30.217 3.8253
LeftShoulder1 -3.88251e-019 -0 -3.92111e-022
LeftArm -32.0893 1.56091 -81.4736
LeftForeArm 26.8104 -12.1746 -2.60521
LeftHand -0.887158 -4.72252 10.4591
RightShoulder 7.45443e-017 -2.42657e-020 1.96277e-018
RightArm -21.7402 -9.80086 71.3725
RightForeArm 22.8418 9.38939 9.4318
RightHand -1.35059 10.6911 -10.1085
LeftUpLeg -23.2992 8.61331 14.9492
LeftLeg 11.2419 -23.8037 -2.23058
LeftFoot -2.49374 1.21328 -15.2456
LeftToes 3.91355e-005 3.11907e-005 -4.10385e-006
49
root 0.485752 38.0037 -28.5455 -168.33 9.42595 -176.127
RightUpLeg -29.854 3.55479 -5.24633
RightLeg 20.5371 13.997 5.53006
RightFoot -6.1231 -0.522939 10.5259
RightToes -0.000541893 -0.000659172 -0.000493268
Spine 6.05562 -0.853934 1.25287
Spine1 12.2022 -1.7634 2.7845
HEad 2.66 -30.868 5.07861
LeftShoulder1 -3.88251e-019 -0 -3.92111e-022
LeftArm -32.225 2.46247 -82.0298
LeftForeArm 25.7053 -12.4373 -2.46798
LeftHand -0.885401 -4.79577 10.3681
RightShoulder 7.45443e-017 -2.42657e-020 1.96277e-018
RightArm -20.5195 -7.20257 69.9597
RightForeArm 20.6857 9.85117 9.33636
RightHand -1.45044 11.242 -10.4855
LeftUpLeg -28.6514 4.83721 16.7314
LeftLeg 14.5802 -4.41422 0.427257
LeftFoot 2.19868 1.40549 -11.9105
LeftToes 3.91355e-005 3.11907e-005 -4.10385e-006
50
root 1.25004 38.0014 -27.8553 -167.047 6.07047 -176.363
RightUpLeg -31.8487 2.67263 -4.25117
RightLeg 20.5684 11.4489 4.50856
RightFoot -5.58357 -0.509592 9.35567
RightToes -0.000541893 -0.000659172 -0.000493268
Spine 6.78874 -1.19306 2.15734
Spine1 13.6571 -2.6647 4.04867
HEad -2.70412 -32.2268 6.56782
LeftShoulder1 -3.88251e-019 -0 -3.92111e-022
LeftArm -32.0931 1.88273 -82.9644
LeftForeArm 26.6959 -10.4008 -2.37284
LeftHand -0.84338 -4.98186 9.72532
RightShoulder 7.45443e-017 -2.42657e-020 1.96277e-018
RightArm -19.6811 -5.65368 68.2368
RightForeArm 16.2629 10.7799 9.19257
RightHand -1.73774 12.1149 -11.8702
LeftUpLeg -34.294 3.18872 14.8179
LeftLeg 18.7246 12.1215 4.89883
LeftFoot 7.33583 0.640593 -4.16684
LeftToes 3.91355e-005 3.11907e-005 -4.10385e-006
51
root 1.88511 37.9858 -27.2267 -165.833 3.33563 -177.079
RightUpLeg -34.1101 2.83213 -4.35768
RightLeg 20.8928 8.61532 3.40721
RightFoot -4.77643 -0.511699 8.33464
RightToes -0.000541893 -0.000659172 -0.000493268
Spine 7.43323 -1.13073 2.78511
Spine1 14.9371 -2.70533 5.09168
HEad -7.18708 -34.2047 8.09099
LeftShoulder1 -3.88251e-019 -0 -3.92111e-022
LeftArm -31.8399 0.207613 -84.1219
LeftForeArm 29.4067 -7.22766 -2.0327
LeftHand -0.766812 -5.09432 8.78396
RightShoulder 7.45443e-017 -2.42657e-020 1.96277e-018
RightArm -19.4088 -5.26968 66.4429
RightForeArm 11.3517 11.6137 9.0781
RightHand -2.0724 12.8172 -13.5412
LeftUpLeg -38.6279 4.04754 9.6983
LeftLeg 21.6843 12.7325 5.81045
LeftFoot 7.37959 0.0628597 -0.669531
LeftToes 3.91355e-005 3.11907e-005 -4.10385e-006
52
root 2.36448 37.8682 -26.7072 -164.232 1.97418 -177.594
RightUpLeg -37.082 2.39726 -4.29002
RightLeg 21.9536 7.69166 3.19041
RightFoot -4.1858 -0.536295 8.10488
RightToes -0.000541893 -0.000659172 -0.000493268
Spine 7.89555 -0.724491 3.27963
Spine1 15.8694 -2.0483 5.94306
HEad -11.0727 -35.5784 9.39578
LeftShoulder1 -3.88251e-019 -0 -3.92111e-022
LeftArm -31.9003 -0.634039 -85.2575
LeftForeArm 30.8622 -5.51992 -1.61905
LeftHand -0.740818 -5.06348 8.52139
RightShoulder 7.45443e-017 -2.42657e-020 1.96277e-018
RightArm -20.213 -4.91272 65.0569
RightForeArm 9.69714 11.5647 8.79657
RightHand -2.09237 12.7906 -13.6795
LeftUpLeg -41.9815 4.42097 4.59547
LeftLeg 24.233 2.25605 1.40563
LeftFoot 3.46145 0.451136 -3.74322
LeftToes 3.91355e-005 3.11907e-005 -4.10385e-006
53
root 2.70181 37.6447 -26.2597 -162.446 1.63599 -177.723
RightUpLeg -40.4878 1.33565 -3.56146
RightLeg 23.4013 8.14379 3.63239
RightFoot -4.09476 -0.517706 7.71977
RightToes -0.000541893 -0.000659172 -0.000493268
Spine 8.23239 -0.345685 3.71227
Spine1 16.5561 -1.44413 6.68166
HEad -14.6933 -35.6473 10.5184
LeftShoulder1 -3.88251e-019 -0 -3.92111e-022
LeftArm -32.2522 -0.281565 -86.1089
LeftForeArm 30.0521 -5.41364 -1.44518
LeftHand -0.772537 -5.01561 8.90928
RightShoulder 7.45443e-017 -2.42657e-020 1.96277e-018
RightArm -21.2202 -3.90954 64.1844
RightForeArm 10.9607 10.8765 8.39536
RightHand -1.93095 12.4082 -12.925
LeftUpLeg -44.7224 3.32545 1.22885
LeftLeg 27.8418 -5.8936 -3.0417
LeftFoot -0.516885 0.523768 -5.48743
LeftToes 3.91355e-005 3.11907e-005 -4.10385e-006
54
root 2.97938 37.396 -25.815 -160.816 2.1329 -177.791
RightUpLeg -43.9062 1.27173 -3.07854
RightLeg 24.8479 8.47891 4.04775
RightFoot -3.72449 -0.491318 6.99063
RightToes -0.000541893 -0.000659172 -0.000493268
Spine 8.64211 0.000624406 3.92942
Spine1 17.3953 -0.896835 6.95057
HEad -18.1086 -34.9152 11.6391
LeftShoulder1 -3.88251e-019 -0 -3.92111e-022
LeftArm -32.4589 0.165896 -86.6568
LeftForeArm 29.1644 -5.59161 -1.53472
LeftHand -0.790327 -5.1441 9.00321
RightShoulder 7.45443e-017 -2.42657e-020 1.96277e-018
RightArm -21.5017 -2.60734 63.6824
RightForeArm 12.208 10.4204 8.10082
RightHand -1.875 12.2766 -12.656
LeftUpLeg -46.5621 1.01983 -0.016202
LeftLeg 31.0292 -6.09932 -3.59792
LeftFoot -3.85294 0.149109 -1.8664
LeftToes 3.91355e-005 3.11907e-005 -4.10385e-006
55
root 3.21536 37.0729 -25.3685 -159.149 3.44803 -177.651
RightUpLeg -47.6615 2.15016 -2.78716
RightLeg 26.6846 8.76583 4.54222
RightFoot -3.1583 -0.472881 6.30251
RightToes -0.000541893 -0.000659172 -0.000493268
Spine 9.07059 0.399934 3.85835
Spine1 18.2825 -0.171655 6.77698
HEad -21.1872 -33.7704 12.6432
LeftShoulder1 -3.88251e-019 -0 -3.92111e-022
LeftArm -32.3085 0.511883 -86.8444
LeftForeArm 29.3954 -6.14803 -1.79265
LeftHand -0.791313 -5.26639 8.91713
RightShoulder 7.45443e-017 -2.42657e-020 1.96277e-018
RightArm -21.1495 -1.40556 63.681
RightForeArm 12.0051 10.6556 7.99141
RightHand -1.89067 12.3716 -12.6923
LeftUpLeg -48.5397 -1.77238 0.975944
LeftLeg 33.0567 -2.67171 -1.51514
LeftFoot -6.7529 -0.0410558 2.03962
LeftToes 3.91355e-005 3.11907e-005 -4.10385e-006
